         <svg xmlns="http://www.w3.org/2000/svg" viewBox="0 0 1000 1000" width="50" height='50' xml:space="preserve"><path style="stroke:none;stroke-width:1;stroke-dasharray:none;stroke-linecap:butt;stroke-dashoffset:0;stroke-linejoin:miter;stroke-miterlimit:4;is-custom-font:none;font-file-url:none;fill:rgb(255, 40, 40);fill-rule:evenodd;opacity:1" transform="translate(-629.767 -2131.963) scale(7.7802)" d="M192.013 358.131a14.181 14.181 0 0 1 2.352 21.047c-11.233 12.43-27.477 20.246-45.531 20.246-33.854 0-61.34-27.485-61.34-61.34 0-33.854 27.486-61.341 61.34-61.341 18.02 0 34.235 7.787 45.462 20.178a14.24 14.24 0 0 1-2.346 21.154c-.446.321-.895.639-1.344.958a14.247 14.247 0 0 1-18.741-2c-5.707-6.242-13.915-10.158-23.031-10.158-17.225 0-31.208 13.983-31.208 31.208 0 17.225 13.984 31.208 31.208 31.208 9.132 0 17.352-3.931 23.061-10.19a14.18 14.18 0 0 1 18.662-2.002l1.456 1.032z"/><g transform="translate(493.357 185.808) scale(7.7802)" clip-path="url(#a)"><clipPath id="a"><path transform="translate(-144.357 -297.906)" d="M192.013 358.131a14.181 14.181 0 0 1 2.352 21.047c-11.233 12.43-27.477 20.246-45.531 20.246-33.854 0-61.34-27.485-61.34-61.34 0-33.854 27.486-61.341 61.34-61.341 18.02 0 34.235 7.787 45.462 20.178a14.24 14.24 0 0 1-2.346 21.154c-.446.321-.895.639-1.344.958a14.247 14.247 0 0 1-18.741-2c-5.707-6.242-13.915-10.158-23.031-10.158-17.225 0-31.208 13.983-31.208 31.208 0 17.225 13.984 31.208 31.208 31.208 9.132 0 17.352-3.931 23.061-10.19a14.18 14.18 0 0 1 18.662-2.002l1.456 1.032z" stroke-linecap="round"/></clipPath><path style="stroke:none;stroke-width:1;stroke-dasharray:none;stroke-linecap:butt;stroke-dashoffset:0;stroke-linejoin:miter;stroke-miterlimit:4;is-custom-font:none;font-file-url:none;fill:#0083e8;fill-rule:evenodd;opacity:1" transform="translate(-144.357 -297.906)" d="M122.373 334.309c-2.14.774-3.932.202-6.122.293-2.945.121-5.935.548-8.887.121-4.725-.683-9.298-2.317-14.121-2.517-4.162-.171-8.46.859-11.744-2.727-5.426-5.925-3.506-17.271-.826-23.945 3.603-8.973 10.696-15.6 17.761-21.892 5.241-4.669 10.363-9.465 16.555-12.882 6.453-3.56 13.712-5.255 20.817-6.97 9.483-2.291 19.084-3.89 28.813-2.149 7.125 1.275 13.8 4.171 20.29 7.28 6.165 2.953 12.329 6.363 17.151 11.282 3.481 3.55 6.596 7.847 7.863 12.725 3.461 13.312-5.294 30.575-18.954 34.309-6.988 1.91-15.323 1.455-22.125-.995-13.035-4.696-23.91-12.933-38.578-8.954-3.691 1.002-4.779 14.839-7.893 17.021z"/></g><circle style="stroke:none;stroke-width:1;stroke-dasharray:none;stroke-linecap:butt;stroke-dashoffset:0;stroke-linejoin:miter;stroke-miterlimit:4;is-custom-font:none;font-file-url:none;fill:#0083e8;fill-rule:evenodd;opacity:1" transform="matrix(7.1765 -3.0047 3.0047 7.1765 169.9 462.342)" r="14.994"/><circle style="stroke:none;stroke-width:1;stroke-dasharray:none;stroke-linecap:butt;stroke-dashoffset:0;stroke-linejoin:miter;stroke-miterlimit:4;is-custom-font:none;font-file-url:none;fill:#0083e8;fill-rule:evenodd;opacity:1" r="14.994" transform="translate(527.46 498.507) scale(7.7802)"/></svg>
